<svg xmlns="http://www.w3.org/2000/svg" viewBox="0,0,256,256" >
    <g transform="">
        <g fill="none" fill-rule="nonzero" stroke="none" stroke-width="1" stroke-linecap="butt" stroke-linejoin="miter"
           stroke-miterlimit="10" stroke-dasharray="" stroke-dashoffset="0" font-family="none" font-weight="none"
           font-size="none" text-anchor="none" style="mix-blend-mode: normal">
            <g transform="scale(5.33333,5.33333)">
                <path d="M41,38c0,5 -4,5 -4,5h-27v-38h31c0,0 0,28 0,33z" fill="#c5cae9"></path>
                <path d="M14,12h3v3h-3zM20,12h17v3h-17zM14,18h3v3h-3zM20,18h17v3h-17zM14,24h3v3h-3zM20,24h17v3h-17z"
                      fill="#7986cb"></path>
                <path d="M33,38c0,-0.713 0,-3.793 0,-5h-16h-6h-4c0,1.207 0,4.287 0,5c0,2.762 1.238,5 4,5h26c-2.762,0 -4,-2.238 -4,-5z"
                      fill="#3f51b5"></path>
            </g>
        </g>
        <g fill="#7cb342" fill-rule="nonzero" stroke="none" stroke-width="1" stroke-linecap="butt"
           stroke-linejoin="miter" stroke-miterlimit="10" stroke-dasharray="" stroke-dashoffset="0" font-family="none"
           font-weight="none" font-size="none" text-anchor="none" style="mix-blend-mode: normal">
            <g transform="translate(139.18182,145) scale(5.09091,5.09091)" id="overlay">
                <path d="M15,6h-3.551c-0.276,0 -0.5,-0.224 -0.5,-0.5c0,-0.141 0.058,-0.268 0.152,-0.359c0.001,-0.001 -0.002,-0.001 -0.001,-0.002c0.554,-0.544 0.9,-1.3 0.9,-2.139c0,-1.657 -1.343,-3 -3,-3c-1.657,0 -3,1.343 -3,3c0,0.839 0.346,1.595 0.9,2.139c0,0.001 -0.002,0.001 -0.001,0.002c0.094,0.091 0.152,0.218 0.152,0.359c0,0.276 -0.224,0.5 -0.5,0.5h-3.551c-1.66,0 -3,1.34 -3,3v2.55c0,0.27 0.22,0.5 0.5,0.5c0.15,0 0.28,-0.07 0.37,-0.18l0.01,0.01c0.54,-0.54 1.29,-0.88 2.12,-0.88c1.66,0 3,1.34 3,3c0,1.66 -1.34,3 -3,3c-0.83,0 -1.58,-0.34 -2.12,-0.88l-0.01,0.01c-0.09,-0.11 -0.22,-0.18 -0.37,-0.18c-0.28,0 -0.5,0.23 -0.5,0.5v2.55c0,1.66 1.34,3 3,3h12c1.66,0 3,-1.34 3,-3v-5v-5c0,-1.66 -1.34,-3 -3,-3z"></path>
            </g>
        </g>
    </g>
</svg>